<?xml version="1.0" encoding="utf-8"?>
<!-- Svg Vector Icons : http://www.onlinewebfonts.com/icon -->
<!DOCTYPE svg PUBLIC "-//W3C//DTD SVG 1.1//EN" "http://www.w3.org/Graphics/SVG/1.1/DTD/svg11.dtd">
<svg version="1.1" xmlns="http://www.w3.org/2000/svg" xmlns:xlink="http://www.w3.org/1999/xlink" x="0px" y="0px" viewBox="0 0 1000 1000" enable-background="new 0 0 1000 1000" xml:space="preserve">
<metadata> Svg Vector Icons : http://www.onlinewebfonts.com/icon </metadata>
<g><g transform="translate(0.000000,511.000000) scale(0.100000,-0.100000)"><path d="M8009.3,4438.9l-572.4-572.4l-139.1,90.7c-346.7,223.7-939.2,469.6-1396.8,576.4c-685.3,161.2-1469.3,163.3-2146.6,2c-687.3-161.2-1322.2-469.6-1884.5-911c-181.4-143.1-596.6-558.3-739.7-739.7c-441.4-562.3-749.8-1197.2-911-1884.5c-159.2-675.2-159.2-1463.3,2-2146.6c106.8-451.5,330.5-997.7,564.4-1380.7c919.1-1493.5,2588-2364.2,4323.4-2255.4c1130.7,70.5,2174.8,528.1,2995.1,1316.2c612.7,586.5,1096.5,1421,1302.1,2247.3c183.4,731.6,187.5,1558,10.1,2269.5c-108.8,437.4-393,1108.6-590.6,1390.7l-68.5,100.8l576.4,578.5c316.4,318.5,572.4,584.5,566.4,588.5c-6.1,6-177.4,30.2-383,54.4c-203.6,24.2-374.9,48.4-378.9,52.4c-6,4,108.8,127,254,274.1c276.1,280.2,324.5,356.8,298.3,479.7c-18.1,82.6-118.9,191.5-201.6,219.7c-143.1,48.4-197.5,16.1-497.9-278.1c-153.2-151.2-282.2-270.1-286.2-264c-4,4-22.2,145.1-40.3,310.4c-44.3,385-54.4,453.5-70.5,453.5C8587.8,5011.4,8323.7,4753.4,8009.3,4438.9z M5155.3,4062c632.9-54.4,1261.7-254,1775.7-562.3c94.7-58.5,177.4-116.9,181.4-129c6.1-14.1,26.2-163.3,48.4-334.6l38.3-312.4l-167.3-167.3l-167.3-167.3l-169.3,120.9c-447.5,320.5-941.3,518-1479.4,588.5c-258,34.3-776,14.1-1023.9-40.3c-638.9-135-1158.9-419.2-1618.5-876.8C2115.8,1724,1839.7,1212,1694.6,563c-64.5-290.2-64.5-971.5,0-1261.7c143.1-649,423.3-1161,878.8-1618.5c588.5-586.5,1296-896.9,2120.4-929.2c749.8-28.2,1402.8,171.3,2027.7,618.8c163.3,116.9,544.2,497.9,661.1,661.1C7801.7-1384,8007.3-757.2,8007.3-67.8c0,683.3-203.6,1312.1-606.7,1872.5l-120.9,169.3l167.3,167.3l167.3,167.3l318.5-38.3c175.4-22.2,326.5-44.3,336.6-50.4c32.2-20.2,221.7-348.7,312.4-542.2c643-1372.6,469.6-3003.2-449.5-4238.7c-171.3-227.8-588.5-645-816.3-816.3C5818.4-4490,3825-4490,2327.4-3375.4c-225.7,167.3-645,586.5-812.3,812.3C257.5-870,438.9,1455.9,1942.5,2907.1C2805.1,3739.5,3984.2,4164.8,5155.3,4062z M5336.7,2784.2c435.4-76.6,858.6-268.1,1292-584.5c22.2-16.1-52.4-100.8-326.5-374.9L5947.4,1470l-143.1,86.7c-326.5,201.6-645,280.2-1060.2,264c-514-20.2-911-193.5-1273.8-556.3c-520-524-687.3-1324.2-419.2-2017.6c211.6-552.3,691.3-983.6,1281.9-1152.9c135-40.3,205.6-46.4,489.8-46.4c286.2,0,354.7,6,493.8,46.4c520,147.1,973.5,522,1209.3,1001.7c131,266.1,173.3,435.4,185.4,755.8c16.1,413.2-64.5,737.7-264.1,1062.2l-86.7,143.1l354.7,354.7c274.1,274.1,358.8,348.7,374.9,326.5c318.5-435.4,505.9-850.6,586.5-1302.1c48.4-258,48.4-747.8,0-1007.8C7461.1-1756.9,6550-2678,5362.9-2913.8c-318.4-62.5-761.9-62.5-1080.3,0c-1046.1,207.6-1874.5,937.2-2211.1,1947.1c-102.8,308.4-137.1,536.1-137.1,898.9s34.2,590.6,137.1,898.9c360.8,1082.3,1292,1844.2,2428.7,1983.3C4699.7,2838.6,5110.9,2824.5,5336.7,2784.2z M5135.1,1212c137.1-36.3,372.9-141.1,372.9-165.3c0-10.1-118.9-135-262-278.1l-262-262h-147.1c-340.6-4-586.5-241.9-586.5-574.4c0-423.3,441.4-701.4,820.3-518c209.6,104.8,322.5,288.2,324.5,532.1l2,147.1l262,262c143.1,143.1,268.1,262,278.1,262c24.2,0,129-235.8,165.3-372.9c38.3-153.2,38.3-469.6,0-624.8c-118.9-469.6-497.9-848.5-967.5-967.5c-153.2-38.3-471.7-38.3-624.8,0c-378.9,96.7-699.4,354.7-862.6,697.4c-108.8,223.7-135,340.6-135,582.5c0,241.9,26.2,358.8,135,582.5c122.9,258,322.5,461.6,574.4,586.5c96.7,46.4,221.7,96.7,282.2,110.9C4655.4,1250.3,4990,1248.3,5135.1,1212z"/></g></g>
</svg>