<?xml version="1.0" encoding="utf-8"?>
<!-- Svg Vector Icons : http://www.onlinewebfonts.com/icon -->
<!DOCTYPE svg PUBLIC "-//W3C//DTD SVG 1.1//EN" "http://www.w3.org/Graphics/SVG/1.1/DTD/svg11.dtd">
<svg version="1.1" xmlns="http://www.w3.org/2000/svg" xmlns:xlink="http://www.w3.org/1999/xlink" x="0px" y="0px" viewBox="0 0 1000 1000" enable-background="new 0 0 1000 1000" xml:space="preserve">
<metadata> Svg Vector Icons : http://www.onlinewebfonts.com/icon </metadata>
<g><g transform="translate(0.000000,511.000000) scale(0.100000,-0.100000)"><path d="M4892,4961.2c-49-47-49-52.9-49-378.3v-329.3l-239.1-23.5c-954.6-96-1836.6-515.5-2522.6-1201.5c-686-686-1105.5-1568.1-1201.5-2522.6l-23.5-239.1H526.8c-325.4,0-331.3,0-378.3-49c-64.7-62.7-64.7-152.9,0-215.6c47-49,52.9-49,378.3-49h329.3L879.6-284c60.8-597.8,250.9-1185.9,552.8-1689.6c686-1154.5,1858.2-1905.2,3173.4-2036.5l237.2-23.5v-329.3c0-325.4,0-331.2,49-378.3c25.5-27.5,66.6-49,88.2-49c56.9,0,149,51,164.7,88.2c5.9,17.6,11.8,178.4,11.8,354.8v321.5h66.7c266.6,0,840.9,119.6,1180,245c697.8,258.7,1358.4,735,1822.9,1311.3c362.6,450.8,650.8,1031,791.9,1597.5c56.8,221.5,117.6,619.4,117.6,758.5v66.7H9457c176.4,0,337.1,5.9,354.8,11.8C9849-19.4,9900,72.8,9900,129.6c0,21.6-21.6,62.7-49,88.2c-47.1,49-52.9,49-382.2,49h-333.2v66.6c0,139.2-60.8,537.1-117.6,758.6c-186.2,748.8-568.4,1411.3-1129,1962.1c-237.2,231.3-386.1,352.8-654.7,529.2c-539,354.8-1185.9,582.1-1840.5,646.8l-237.2,23.5v329.3c0,325.4,0,331.3-49,378.3c-29.4,31.4-70.6,49-107.8,49C4962.5,5010.2,4921.4,4992.6,4892,4961.2z M4842.9,2552.3c0-758.6,5.9-1395.6,11.8-1413.2c17.6-45.1,121.5-94.1,176.4-80.4c25.5,7.8,64.7,31.4,86.3,54.9c39.2,41.2,39.2,62.7,39.2,1430.9v1387.7h66.7c250.9,0,805.6-115.6,1119.2-231.3c944.8-352.8,1724.9-1072.2,2136.5-1973.8c182.3-401.8,343-1050.6,343-1395.6v-64.7H7438.1c-846.8,0-1395.6-7.8-1417.2-19.6c-19.6-9.8-47-45.1-60.8-78.4c-29.4-68.6,0-164.7,60.8-196c21.6-11.7,570.4-19.6,1417.2-19.6h1383.8v-64.7c0-345-160.7-993.8-343-1395.6c-366.5-799.7-1062.4-1495.5-1862.1-1862.1c-401.8-182.3-1050.6-343-1395.6-343h-64.7v1383.8c0,846.8-7.9,1395.6-19.6,1417.2c-31.3,60.8-127.4,90.2-196,60.8c-33.3-13.7-68.6-41.2-78.4-60.8c-11.8-21.6-19.6-570.4-19.6-1417.2v-1383.8h-64.7c-101.9,0-380.3,37.2-590,80.4C2927.9-3377,1867.5-2459.7,1408.9-1232.7c-115.6,313.6-231.3,868.3-231.3,1119.2v66.7h1387.7c1368.2,0,1389.7,0,1430.9,39.2c23.5,21.6,47.1,60.8,54.9,86.3c13.7,54.9-35.3,158.8-80.4,176.4c-17.6,5.9-654.7,11.8-1413.2,11.8H1177.6v66.6c0,37.2,13.7,168.6,29.4,290.1c111.7,842.8,484.2,1603.4,1080,2199.2c495.9,494,1113.3,840.9,1789.6,1005.5c219.5,52.9,523.3,98,674.3,101.9l92.1,2V2552.3z"/></g></g>
</svg>