<svg width="56" height="56" viewBox="0 0 56 56" fill="none" xmlns="http://www.w3.org/2000/svg">
<rect width="56" height="56" rx="4" fill="#D7D7D7"/>
<path d="M10.6896 47.2018L6.83789 4H49.1619L45.306 47.1949L27.974 52L10.6896 47.2018Z" fill="#264DE4"/>
<path d="M42.0051 44.4445L45.3003 7.53229H28V48.3272L42.0051 44.4445Z" fill="#2965F1"/>
<path d="M15.6681 23.5553L16.143 28.8538H28V23.5553H15.6681ZM15.1956 18.1296H28V12.831H14.7139L15.1956 18.1296ZM28 37.3162L27.9768 37.3223L22.0758 35.729L21.6986 31.5031H16.3796L17.122 39.8226L27.9756 42.8357L28 42.8288V37.3162Z" fill="#EBEBEB"/>
<path d="M27.9817 23.5553V28.8538H34.5062L33.8912 35.7256L27.9817 37.3206V42.8331L38.8439 39.8226L38.9236 38.9273L40.1686 24.9781L40.298 23.5553L41.2545 12.831H27.9817V18.1296H35.4478L34.9656 23.5553H27.9817Z" fill="white"/>
</svg>
