<svg width="28" height="28" viewBox="0 0 28 28" fill="none" xmlns="http://www.w3.org/2000/svg">
<g filter="url(#filter0_d_17_43)">
<path d="M13 16H15V14H13V16ZM14 0C12.6868 0 11.3864 0.258658 10.1732 0.761205C8.95991 1.26375 7.85752 2.00035 6.92893 2.92893C5.05357 4.8043 4 7.34784 4 10C4 12.6522 5.05357 15.1957 6.92893 17.0711C7.85752 17.9997 8.95991 18.7362 10.1732 19.2388C11.3864 19.7413 12.6868 20 14 20C16.6522 20 19.1957 18.9464 21.0711 17.0711C22.9464 15.1957 24 12.6522 24 10C24 8.68678 23.7413 7.38642 23.2388 6.17317C22.7362 4.95991 21.9997 3.85752 21.0711 2.92893C20.1425 2.00035 19.0401 1.26375 17.8268 0.761205C16.6136 0.258658 15.3132 0 14 0ZM14 18C9.59 18 6 14.41 6 10C6 5.59 9.59 2 14 2C18.41 2 22 5.59 22 10C22 14.41 18.41 18 14 18ZM14 4C12.9391 4 11.9217 4.42143 11.1716 5.17157C10.4214 5.92172 10 6.93913 10 8H12C12 7.46957 12.2107 6.96086 12.5858 6.58579C12.9609 6.21071 13.4696 6 14 6C14.5304 6 15.0391 6.21071 15.4142 6.58579C15.7893 6.96086 16 7.46957 16 8C16 10 13 9.75 13 13H15C15 10.75 18 10.5 18 8C18 6.93913 17.5786 5.92172 16.8284 5.17157C16.0783 4.42143 15.0609 4 14 4Z" fill="#FF453A"/>
</g>
<defs>
<filter id="filter0_d_17_43" x="0" y="0" width="28" height="28" filterUnits="userSpaceOnUse" color-interpolation-filters="sRGB">
<feFlood flood-opacity="0" result="BackgroundImageFix"/>
<feColorMatrix in="SourceAlpha" type="matrix" values="0 0 0 0 0 0 0 0 0 0 0 0 0 0 0 0 0 0 127 0" result="hardAlpha"/>
<feOffset dy="4"/>
<feGaussianBlur stdDeviation="2"/>
<feComposite in2="hardAlpha" operator="out"/>
<feColorMatrix type="matrix" values="0 0 0 0 0 0 0 0 0 0 0 0 0 0 0 0 0 0 0.25 0"/>
<feBlend mode="normal" in2="BackgroundImageFix" result="effect1_dropShadow_17_43"/>
<feBlend mode="normal" in="SourceGraphic" in2="effect1_dropShadow_17_43" result="shape"/>
</filter>
</defs>
</svg>
