<svg width="24" height="24" viewBox="0 0 24 24" fill="none" xmlns="http://www.w3.org/2000/svg">
<path d="M12.2449 9.81824V14.4655H18.8349C18.5455 15.9601 17.6771 17.2256 16.3747 18.0765L20.3488 21.0984C22.6642 19.0039 24 15.9275 24 12.2729C24 11.422 23.9221 10.6038 23.7774 9.81837L12.2449 9.81824Z" fill="#4285F4"/>
<path d="M5.38234 14.2841L4.48605 14.9564L1.31342 17.3782C3.32827 21.2946 7.45789 24.0001 12.2445 24.0001C15.5506 24.0001 18.3224 22.931 20.3485 21.0983L16.3744 18.0764C15.2835 18.7964 13.892 19.2328 12.2445 19.2328C9.06085 19.2328 6.35589 17.1274 5.38735 14.291L5.38234 14.2841Z" fill="#34A853"/>
<path d="M1.31346 6.62183C0.478619 8.23631 0 10.0582 0 12C0 13.9418 0.478619 15.7636 1.31346 17.3781C1.31346 17.3889 5.38779 14.2799 5.38779 14.2799C5.14289 13.5599 4.99813 12.7963 4.99813 11.9998C4.99813 11.2034 5.14289 10.4398 5.38779 9.71977L1.31346 6.62183Z" fill="#FBBC05"/>
<path d="M12.2448 4.7782C14.0482 4.7782 15.6511 5.3891 16.9313 6.56731L20.4378 3.13097C18.3116 1.18917 15.551 0 12.2448 0C7.45814 0 3.32828 2.69456 1.31342 6.62186L5.38762 9.72007C6.35603 6.88366 9.0611 4.7782 12.2448 4.7782Z" fill="#EA4335"/>
</svg>
