<svg width="56" height="56" viewBox="0 0 56 56" fill="none" xmlns="http://www.w3.org/2000/svg">
<rect width="56" height="56" rx="4" fill="#D7D7D7"/>
<path d="M10.6562 47.125L6.8125 4H49.0938L45.25 47.125L27.9062 52" fill="#E34F26"/>
<path d="M28 48.25L41.9688 44.4062L45.25 7.46875H28" fill="#EF652A"/>
<path d="M28 23.5H20.9688L20.5 18.0625H28V12.8125H27.9062H14.6875L14.7812 14.2188L16.0938 28.8438H28V23.5ZM28 37.2812H27.9062L22 35.6875L21.625 31.4688H18.8125H16.375L17.0312 39.8125L27.9062 42.8125H28V37.2812Z" fill="#EBEBEB"/>
<path d="M27.9062 23.5V28.8438H34.4688L33.8125 35.6875L27.9062 37.2812V42.8125L38.7812 39.8125L38.875 38.875L40.0938 24.9062L40.2812 23.5H38.7812H27.9062ZM27.9062 12.8125V16.0938V18.0625H40.75L40.8438 16.9375L41.125 14.2188L41.2188 12.8125H27.9062Z" fill="white"/>
</svg>
