<svg xmlns="http://www.w3.org/2000/svg" viewBox="0 0 24 24" width="1em" height="1em" fill="currentColor" class="h-4 w-4 text-gray-6 dark:text-dark-gray-6 group-hover:text-gray-7 dark:group-hover:text-dark-gray-7"><path fill-rule="evenodd" d="M15.667 10.333v3.334h1.666a3.667 3.667 0 11-3.666 3.666v-1.666h-3.334v1.666a3.667 3.667 0 11-3.666-3.666h1.666v-3.334H6.667a3.667 3.667 0 113.666-3.666v1.666h3.334V6.667a3.667 3.667 0 113.666 3.666h-1.666zm-5.334 0v3.334h3.334v-3.334h-3.334zm-2-2V6.667a1.667 1.667 0 10-1.666 1.666h1.666zm-1.666 7.334a1.667 1.667 0 101.666 1.666v-1.666H6.667zm9 1.666a1.667 1.667 0 101.666-1.666h-1.666v1.666zm1.666-9a1.667 1.667 0 10-1.666-1.666v1.666h1.666z" clip-rule="evenodd"></path></svg>